<?xml version="1.0" standalone="no"?>
<!DOCTYPE svg PUBLIC "-//W3C//DTD SVG 20010904//EN"
 "http://www.w3.org/TR/2001/REC-SVG-20010904/DTD/svg10.dtd">
<svg version="1.0" xmlns="http://www.w3.org/2000/svg"
 width="700.000000pt" height="700.000000pt" viewBox="0 0 700.000000 700.000000"
 preserveAspectRatio="xMidYMid meet">
<metadata>
Created by potrace 1.11, written by Peter Selinger 2001-2013
</metadata>
<g transform="translate(0.000000,700.000000) scale(0.100000,-0.100000)"
fill="#000000" stroke="none">
<path d="M4985 6604 c-66 -25 -129 -49 -140 -54 -11 -5 -142 -55 -292 -110
l-271 -102 -12 -67 c-7 -36 -14 -74 -16 -84 -2 -10 -5 -26 -8 -35 -3 -9 -8
-30 -10 -47 -3 -16 -11 -55 -17 -85 -6 -30 -12 -64 -14 -75 -2 -11 -21 -105
-43 -210 -23 -104 -43 -201 -45 -215 -3 -14 -17 -81 -32 -150 -15 -69 -29
-135 -31 -147 -7 -37 -13 -67 -18 -88 -5 -22 -36 -169 -42 -200 -2 -11 -6 -30
-9 -42 -11 -48 -64 -300 -71 -338 -2 -11 -8 -42 -14 -70 -6 -27 -12 -59 -14
-70 -3 -11 -14 -64 -26 -119 -12 -54 -23 -106 -25 -115 -12 -63 -86 -415 -94
-451 -5 -25 -13 -61 -16 -80 -3 -19 -19 -93 -35 -165 -27 -122 -152 -738 -165
-815 -3 -19 -10 -52 -14 -72 -5 -20 -7 -40 -5 -43 2 -3 0 -2 -4 2 -7 6 -129
518 -168 698 -2 11 -31 139 -65 284 -66 287 -68 294 -75 331 -3 14 -10 43 -16
65 -10 39 -15 60 -23 101 -3 12 -39 167 -80 345 -41 178 -87 373 -100 434 -14
60 -28 119 -30 130 -3 11 -9 38 -14 60 -18 83 -72 315 -101 440 -17 72 -33
141 -36 155 -3 14 -9 41 -13 60 -5 19 -12 47 -15 62 l-6 27 -148 -60 c-81 -33
-166 -69 -189 -80 -24 -10 -45 -19 -48 -19 -4 0 -25 -8 -48 -19 -23 -10 -129
-53 -234 -96 l-193 -79 0 -2508 0 -2509 23 7 c12 4 144 58 292 121 149 63 277
117 286 120 14 4 16 148 15 1564 -1 857 1 1559 4 1559 3 0 20 -64 38 -143 18
-78 35 -150 38 -159 2 -10 6 -26 8 -35 26 -107 141 -580 197 -808 39 -159 72
-297 74 -305 2 -12 99 -411 122 -505 2 -11 8 -38 13 -60 5 -22 14 -53 20 -70
6 -16 11 -31 10 -33 -5 -8 169 -722 175 -722 3 0 147 56 534 207 l175 68 12
75 c7 41 16 95 19 120 6 46 31 196 40 240 3 14 7 39 10 57 2 18 8 58 14 90 5
32 13 76 16 98 4 22 9 54 12 70 8 51 153 928 159 960 2 17 6 41 9 55 3 14 7
39 9 55 7 39 11 65 36 215 12 69 23 136 25 150 4 26 112 675 120 720 38 227
55 333 57 354 11 132 14 -187 14 -1500 -1 -839 1 -1530 4 -1535 3 -5 48 8 100
27 52 20 129 48 170 64 207 76 347 129 361 134 14 6 16 241 16 2511 0 1799 -3
2505 -11 2504 -6 0 -65 -20 -131 -45z"/>
</g>
</svg>
